<?xml version="1.0" standalone="no"?>
<!DOCTYPE svg PUBLIC "-//W3C//DTD SVG 1.1//EN" "http://www.w3.org/Graphics/SVG/1.1/DTD/svg11.dtd" >
<svg xmlns="http://www.w3.org/2000/svg">
<metadata></metadata>
<defs>
<font id="untitledregular" horiz-adv-x="1705" >
<font-face units-per-em="2048" ascent="1536" descent="-512" />
<missing-glyph horiz-adv-x="1024" />
<glyph horiz-adv-x="0" />
<glyph horiz-adv-x="682" />
<glyph horiz-adv-x="0" />
<glyph horiz-adv-x="0" />
<glyph unicode="&#xd;" horiz-adv-x="1024" />
<glyph unicode=" "  horiz-adv-x="1024" />
<glyph unicode="&#x09;" horiz-adv-x="1024" />
<glyph unicode="&#xa0;" horiz-adv-x="1024" />
<glyph unicode="!" horiz-adv-x="790" d="M221 178l-90 1368h553l-96 -1368h-367zM399 31q107 0 183 -60q71 -65 71 -168q0 -98 -71 -163q-75 -62 -183 -62q-100 0 -172 62q-67 64 -67 163q0 104 67 168q73 60 172 60z" />
<glyph unicode="&#x22;" horiz-adv-x="2193" d="M1759 1192h-8q153 -131 240.5 -311t87.5 -381q0 -190 -77.5 -363t-208.5 -298t-312.5 -199t-380.5 -74t-379.5 74t-311 199t-207.5 298t-77 363q0 205 88 384.5t244 311.5q46 40 112 37t109 -47q43 -51 39.5 -113.5t-53.5 -103.5q-103 -92 -161.5 -212.5t-58.5 -256.5 q0 -128 52 -244.5t140.5 -201t210.5 -134.5t257 -51q180 1 332 85.5t240.5 229.5t88.5 316q0 134 -59.5 255.5t-163.5 211.5q-47 42 -50 104.5t42 110.5q45 45 110 48t115 -38zM1092 344h14q-66 0 -112 44.5t-46 107.5v974q0 64 43.5 108t108.5 44t106 -44t41 -108v-974 q0 -63 -45.5 -107.5t-109.5 -44.5z" />
<glyph unicode="#" horiz-adv-x="1740" d="M547 1030v-319h557v303q0 109 -73 186.5t-177 77.5h-55q-106 0 -179 -70.5t-73 -177.5zM1382 711l140 -2v-1112h-1391v1112h137v301q0 110 41 208.5t113 170t176 113.5t225 42h11q140 0 265.5 -67t204 -186.5t78.5 -260.5v-319z" />
<glyph unicode="$" horiz-adv-x="2867" d="M1243 31q95 0 161 -67t66 -163q0 -93 -66 -159t-161 -66q-94 0 -160.5 66.5t-66.5 158.5q0 95 66.5 162.5t160.5 67.5zM2273 487v451h-456v-451h456zM1063 487h450v451h-450v-451zM850 1243h1880l-293 -975q-14 -39 -43.5 -64.5t-64.5 -25.5h-1242q-55 0 -99.5 18 t-69.5 45t-39 52.5t-17 46.5l-256 752l-606 454h440zM2046 31q96 0 161.5 -67t65.5 -163q0 -93 -65.5 -159t-161.5 -66q-94 0 -160.5 66.5t-66.5 158.5q0 95 66.5 162.5t160.5 67.5z" />
<glyph unicode="%" horiz-adv-x="2742" d="M2449 682v405h-2164v-405h2164zM2394 1360q78 0 133.5 -56.5t55.5 -134.5v-1245q0 -78 -55.5 -133t-133.5 -55h-2054q-77 0 -132.5 55t-55.5 133v1245q0 78 55.5 134.5t132.5 56.5h2054z" />
<glyph unicode="&#x26;" horiz-adv-x="2639" d="M236 623q114 131 344 161q-66 141 -66 256q0 130 82 246q72 104 209 182q129 72 260 72q151 0 254 -80q100 -81 100 -192q0 -86 -45 -154q-51 -72 -106 -72q-27 0 -27 27q0 3 16 43q23 61 23 111q0 80 -70 135q-70 53 -176 53q-164 0 -299 -129q-143 -131 -143 -295 q0 -73 22 -121q14 -48 35 -69q19 -15 49 -15q201 0 201 -110q0 -32 -22 -51q-16 -27 -58 -27q-45 0 -119 55q-80 64 -147 64q-91 0 -172 -90q-84 -84 -84 -205q0 -239 244 -443q239 -208 600 -208q338 0 590 161q241 165 241 389q0 156 -121 265q-116 110 -325 110 q-169 0 -297 -86q-129 -86 -129 -215q0 -76 47 -129q53 -53 102 -53q26 0 41 16t15 45l-5 17v26q0 65 37 99q30 41 86 41q52 0 90 -33q39 -33 39 -94q0 -91 -61 -152q-73 -57 -166 -57q-115 0 -203 82q-88 79 -88 198q0 169 150 316q158 139 551 139q357 0 512 94 q161 87 161 279q0 108 -71 182q-69 72 -180 72q-53 0 -80 -15t-27 -45q0 -17 27 -57q30 -41 30 -88q0 -52 -39 -88q-36 -39 -104 -39q-75 0 -109 45q-38 38 -38 102q0 91 94 170q105 76 250 76q151 0 256 -108q102 -108 102 -263q0 -140 -88 -260q-86 -117 -221 -168 q-151 -49 -379 -57q233 -155 233 -405q0 -184 -143 -361q-144 -173 -348 -256q-209 -84 -500 -84q-230 0 -385 49q-137 49 -280 146q-129 91 -209 231q-78 126 -78 295q0 194 115 324z" />
<glyph unicode="(" horiz-adv-x="2244" d="M2249 2h-2247l1122 1122z" />
<glyph unicode=")" horiz-adv-x="2244" d="M2 1124h2247l-1125 -1122z" />
<glyph unicode="*" horiz-adv-x="2516" d="M1249 1640l363 -704l811 -111l-584 -546l139 -771l-729 367l-725 -367l140 771l-584 546l811 111z" />
<glyph unicode="/" />
<glyph unicode="0" horiz-adv-x="2267" d="M1794 891l-2 2q15 19 15 41t-15 39l-135 129q-15 19 -37 19t-35 -19l-598 -600q-19 -15 -41 -15t-37 15l-217 219q-19 15 -40.5 15t-35.5 -15l-135 -135q-19 -15 -19 -36t19 -38l342 -344q46 -41 90 -41h64q37 0 94 41zM1130 1657q210 0 402 -82t330.5 -220.5t220.5 -330 t82 -401.5q0 -209 -82 -399.5t-220.5 -329t-330.5 -220.5t-402 -82q-209 0 -399.5 82t-328.5 220.5t-220 329t-82 399.5q0 210 82 401.5t220 330t328.5 220.5t399.5 82z" />
<glyph unicode="1" horiz-adv-x="2830" d="M135 633l379 256l522 -594l1325 1380l342 -299l-1716 -1765z" />
<glyph unicode=":" horiz-adv-x="2201" d="M850 -84v-389l-778 600l778 532v-350h778v-393h-778zM1237 1212v392l778 -598l-778 -533v354h-778v385h778z" />
<glyph unicode="&#x3c;" horiz-adv-x="1697" d="M809 612l739 -673l-297 -314l-1089 981l1089 940l297 -297z" />
<glyph unicode="=" horiz-adv-x="2611" d="M2226 -152h281l-424 -487l-422 487h287v562h-287l422 428l424 -428h-281v-562zM1802 250l2 -256h-278v-144v-143h-1413v217q0 5 2 14.5t17 38t40 56.5t79.5 66t127.5 71q29 13 135.5 73t220.5 107t238 68q-35 37 -70.5 98.5t-53.5 100t-63 139.5q-31 83 -38.5 251 t18.5 257q29 104 91 168t136.5 87t173.5 23q72 0 131 -13.5t112.5 -44t93.5 -86t63 -134.5q27 -91 18 -258.5t-41 -249.5q-54 -130 -94.5 -208.5t-89.5 -131.5q86 -14 174 -44.5t142 -56.5t126 -65z" />
<glyph unicode="&#x3e;" d="M164 -61l739 673l-739 637l297 297l1089 -940l-1089 -981z" />
<glyph unicode="?" horiz-adv-x="1357" d="M606 47q117 0 195 -65q73 -64 73 -177q0 -106 -73 -176q-75 -63 -195 -63q-111 0 -180 63q-76 73 -76 176q0 110 76 177q71 65 180 65zM1100 1421q160 -132 160 -350q0 -133 -39 -231q-47 -102 -103 -158q-20 -26 -41 -47t-38 -35t-54 -45t-70 -59q-35 -31 -52 -98 t-17 -122v-71v-43h-418h-49v127q0 92 18 155q24 84 76 172q63 83 119 129l110 95q59 56 80 90q25 39 25 94q0 75 -37 117q-41 37 -154 37q-32 0 -79 -9q-55 -11 -91 -24q-44 -11 -86 -35q-14 -7 -38 -21t-35 -20l-43 -31l-176 324l34 24q105 66 242 117q149 45 334 45 q271 0 422 -127z" />
<glyph unicode="@" horiz-adv-x="2123" d="M1634 -35h387q-88 -111 -253 -203.5t-334.5 -141t-300.5 -48.5q-171 0 -335 55.5t-296 154t-232.5 225.5t-155.5 278t-55 303q0 156 55 302t154.5 262.5t231.5 204.5t293.5 135.5t332.5 47.5q120 0 245.5 -36t243.5 -109.5t210.5 -173t148.5 -238.5t56 -295 q0 -106 -26.5 -195t-68.5 -149t-99.5 -107.5t-115 -74.5t-119.5 -44.5t-108.5 -23.5t-85.5 -6q-63 0 -98.5 44.5t-38.5 103.5h-4q-4 -4 -22 -22.5t-24.5 -25.5t-25.5 -25t-29.5 -26t-30.5 -23t-35 -22.5t-37.5 -18t-42 -15.5t-44 -9t-49.5 -4q-113 0 -199.5 69t-129 174.5 t-42.5 227.5q0 81 20.5 166.5t63.5 167t102 145.5t144 103t182 39q70 0 150 -31.5t141.5 -84t75.5 -106.5l4 -90v123h127l-109 -485q-4 -15 -10 -19t-10.5 -1.5t-7.5 -1.5t-3 -19q0 -43 18.5 -64.5t63.5 -21.5q50 0 104 20t104 59t82 106.5t32 152.5q0 118 -42.5 226 t-113.5 188t-161.5 139.5t-190 90t-195.5 30.5q-133 0 -263.5 -40t-238.5 -112.5t-191.5 -166.5t-130 -208.5t-46.5 -232.5q0 -72 22 -153.5t65 -162.5t102.5 -159t137.5 -142.5t166 -113t193 -70t214 -14.5t232.5 55t245.5 137zM1067 909q-43 -1 -103.5 -59t-106.5 -145 t-46 -158q0 -25 1.5 -42.5t13 -52.5t33 -57.5t66 -40.5t107.5 -18q73 0 126 24.5t81.5 66.5t41.5 88t13 97q0 59 -38.5 131t-92.5 120.5t-96 45.5z" />
<glyph unicode="A" horiz-adv-x="2539" d="M72 651l1030 1030l1030 -1030h-295v-295h-147v-293h-293v-442h-1030v1030h-295zM956 944v-293h291v293h-291zM2427 -84v-295h-295v-295h-295v295h-295v295h295v295h295v-295h295z" />
<glyph unicode="B" horiz-adv-x="2289" d="M109 -274l129 131h129v778h-129v127h1812v-127h-131v-778h131l129 -131v-127h-2070v127zM1661 -143v778h-129v-778h129zM1274 -143v778h-260v-778h260zM756 -143v778h-129v-778h129zM238 1022l907 518l905 -518v-131h-1812v131z" />
<glyph unicode="C" horiz-adv-x="4159" d="M4045 -270l2 -170h-752v131v84q0 2 0.5 19.5t0 27t-2 31t-5.5 37t-11.5 39.5t-18 43t-27 43.5t-37.5 45t-50 42.5t-64 42q-45 72 -104 234q-25 67 -32 197.5t9 201.5q60 217 307 217t304 -217q15 -67 10.5 -202t-29.5 -197l-24 -60t-27 -65.5t-23 -49.5t-29.5 -53.5 t-29.5 -35.5q224 -43 420 -129q56 -25 98.5 -60.5t63 -68.5t33.5 -62.5t15 -46.5zM879 -217v-57v-164h-760v172q1 6 4.5 17.5t20 43.5t39.5 61t68 64t101 60q73 33 107 48t120 42t181 45q-60 62 -133 260q-22 73 -28 201.5t19 201.5q52 217 302 217q241 0 301 -217 q17 -68 9 -203.5t-32 -199.5q-55 -159 -106 -230q-45 -27 -80.5 -57t-57.5 -58t-38 -57.5t-22.5 -54.5t-11 -49t-3.5 -41.5t0 -32.5v-12zM2861 106q67 -40 106.5 -67t78 -60t58 -64.5t31 -72t11.5 -90.5v-190h-2124v207q0 110 67.5 196t251.5 174q17 8 80 39.5t91 43 t87.5 34.5t124 39.5t146.5 32.5q-95 119 -189 366q-33 96 -36.5 269.5t22.5 275.5q75 301 416 301q59 0 109.5 -8.5t100 -29.5t88.5 -55t71 -86.5t51 -121.5q20 -70 11.5 -269.5t-36.5 -275.5q-91 -247 -186 -366q201 -37 330.5 -91.5t238.5 -130.5z" />
<glyph unicode="D" horiz-adv-x="2297" d="M991 383q0 44 43.5 227t87.5 344l43 160q170 -631 170 -731q0 -71 -49.5 -123.5t-120.5 -52.5t-122.5 52.5t-51.5 123.5zM1165 1491q206 0 394 -81t324 -218t217 -325.5t81 -395.5q0 -247 -113 -465q-71 -136 -177.5 -246.5t-239.5 -185.5q-230 -119 -486 -119 q-257 0 -473 115q-135 71 -246 180t-182 244q-119 221 -119 477q0 207 81 395.5t218 325.5t325.5 218t395.5 81zM381 518h172v-92h-172q18 -280 203 -477l149 151l68 -67l-152 -152q200 -172 469 -190v203h92v-203q133 9 252.5 57.5t212.5 130.5l-151 154l67 67l152 -155 q185 204 203 481h-203v92h203q-18 254 -177 453l-149 -150l-66 68l150 149q-106 103 -245.5 160t-293.5 57q-156 0 -296.5 -57.5t-250.5 -161.5l150 -147l-68 -68l-145 148q-156 -198 -174 -451z" />
<glyph unicode="E" horiz-adv-x="2508" d="M1950 -70v451l278 244v-727q0 -137 -99.5 -233.5t-240.5 -96.5h-1425q-141 0 -240.5 96.5t-99.5 233.5v1310q0 138 99.5 233t240.5 95h1372q13 0 34 -21t29 -24l-249 -236h-1162q-37 0 -61.5 -23t-24.5 -58v-1244q0 -35 24.5 -57.5t61.5 -22.5h1377q34 0 60 23t26 57z M1479 307l-246 238l-119 -350zM1161 586l981 944l369 -352l-987 -940l-543 -172z" />
<glyph unicode="F" horiz-adv-x="2385" d="M2265 211q0 -108 -66.5 -193.5t-170.5 -113.5q39 -113 170 -209q23 -18 -9 -31q-55 -23 -166 0q-209 44 -390 223l-7 7h-772q-113 0 -201 69q88 58 146 109h714q191 0 327 135t136 325v605q122 -14 205.5 -104t83.5 -212v-610zM1833 532q0 -132 -93.5 -224.5 t-226.5 -92.5h-772q-128 -128 -260.5 -185t-232.5 -57q-71 0 -87 22q-7 10 7 19q137 106 170 211q-104 28 -171 113t-67 194v609q0 132 94 224.5t226 92.5h1093q133 0 226.5 -92.5t93.5 -224.5v-609z" />
<glyph unicode="H" horiz-adv-x="2576" d="M170 483l1128 1104l1104 -1104h-309v-921h-539v659h-538v-659h-539v921h-307z" />
<glyph unicode="L" horiz-adv-x="1554" d="M111 907q0 175 88.5 323t242 234t334.5 86q182 0 335.5 -86t242 -234t88.5 -323q0 -90 -36.5 -211.5t-95.5 -243t-130 -247.5t-142 -234t-130 -193.5t-96 -134.5l-36 -49q-14 18 -38 49t-93 128t-132 192.5t-139.5 228t-131.5 250t-93 243.5t-38 222zM557 907 q0 -89 63 -152t156 -63t158 63.5t65 151.5q0 90 -65 153.5t-158 63.5t-156 -63.5t-63 -153.5z" />
<glyph unicode="M" horiz-adv-x="2400" d="M2243 115l-687 657l687 588q8 -16 8 -37v-1169q0 -23 -8 -39zM1378 776l-182 -145l-180 145l-90 76l-693 590q24 6 37 6h1856q12 0 33 -6l-693 -590zM2126 29h-1856q-8 0 -32 4l692 667l266 -219l270 219l691 -667q-24 -4 -31 -4zM152 1360l686 -588l-686 -657 q-9 18 -9 39v1169q0 19 9 37z" />
<glyph unicode="N" horiz-adv-x="1933" d="M94 111q0 63 45 108t109 45h1433q63 0 108.5 -45t45.5 -108q0 -64 -45.5 -109t-108.5 -45h-1433q-64 0 -109 44.5t-45 109.5zM94 657q0 63 45 108.5t109 45.5h1433q63 0 108.5 -45.5t45.5 -108.5q0 -64 -45.5 -109.5t-108.5 -45.5h-1433q-64 0 -109 45t-45 110zM94 1237 q0 63 45 108.5t109 45.5h1433q63 0 108.5 -45.5t45.5 -108.5t-45.5 -108.5t-108.5 -45.5h-1433q-64 0 -109 45.5t-45 108.5z" />
<glyph unicode="Q" horiz-adv-x="2072" d="M1346 733q22 51 22 137q0 127 -88 203q-89 74 -238 74q-110 0 -186 -27q-82 -29 -137 -67l-21 -13l101 -190l22 16q21 14 43 25q12 7 47 20q34 13 52 15q24 6 45 6q61 0 86 -25q22 -22 22 -65q0 -32 -14 -56q-16 -24 -45 -53q-9 -7 -64 -55q-34 -27 -63 -74 q-30 -44 -45 -102q-11 -37 -11 -90q0 -25 3 -52l2 -22h22h193v24q0 58 18 93q17 35 47 65t62 55q27 18 71 66q37 50 54 92zM1100 29q41 41 41 102t-41 102q-43 37 -109 37q-64 0 -104 -37q-41 -41 -41 -102t41 -102q39 -39 104 -39q67 0 109 39zM1038 1501q187 0 357.5 -73 t294.5 -196.5t197 -294t73 -357.5q0 -188 -73 -358.5t-197 -294t-294.5 -196.5t-357.5 -73q-188 0 -358.5 73t-294 196.5t-196 294t-72.5 358.5q0 187 73 357.5t196 294t293.5 196.5t358.5 73z" />
<glyph unicode="R" horiz-adv-x="2357" d="M1698 215l102 -106l76 -78q-124 -163 -309 -258t-396 -95q-182 0 -347.5 73t-285.5 196t-191.5 293.5t-72.5 357.5h-28h-6h-177l334 344l340 -344h-137h-76q1 -134 52.5 -257t138.5 -212t206.5 -142t249.5 -53q159 0 297 76t230 205zM2142 598h137l-333 -344l-340 344 h133h80v6q0 134 -51.5 257.5t-138.5 213t-207 142.5t-251 53q-162 0 -301 -77t-227 -210l-104 109l-78 77q127 166 312 261.5t398 95.5q182 0 347.5 -73t285.5 -197t191 -294.5t71 -357.5v-6h76zM1378 461q0 -48 -17.5 -84.5t-45.5 -57t-55.5 -31.5t-55.5 -14v-45 q0 -11 -4 -14.5t-16 -3.5h-19q-14 0 -19 4t-5 14v45q-35 0 -102.5 15.5t-67.5 34.5q0 2 2 8l28 82q0 6 9 6q1 0 21.5 -9.5t52 -20t57.5 -13.5v190q-77 30 -105 50q-69 50 -69 133q0 50 20.5 88.5t51 58t56.5 29t46 10.5v45q0 13 5 16.5t19 3.5h19q12 0 16 -3.5t4 -16.5v-45 q38 -3 98 -19.5t60 -37.5q0 -1 -1 -5t-1 -6l-33 -65q-4 -8 -12 -8q-1 0 -20 9.5t-45.5 19.5t-45.5 10v-179q2 -1 20.5 -9.5t23.5 -11t22 -11.5t24 -14.5t21.5 -16t21 -19t16 -22t14 -26.5t8 -29.5t3.5 -34.5zM1198 545v-168q27 6 47.5 25t20.5 53q0 12 -2.5 22t-8 18.5 t-10 14.5t-13 12.5t-12 9t-12.5 8t-10 5.5zM1081 762q0 -19 6.5 -34.5t21 -26.5t20.5 -14.5t20 -10.5v158q-68 -15 -68 -72z" />
<glyph unicode="S" horiz-adv-x="2801" d="M1587 887h551l-795 -676l-763 676h520v653h487v-653zM119 563h327v-653h1795v653h325v-768q0 -89 -62 -151t-151 -62h-2023q-55 0 -105.5 47.5t-78 113t-27.5 124.5v696z" />
<glyph unicode="T" horiz-adv-x="2078" d="M887 563v508l475 -254zM1839 403v854q0 17 -11 28t-26 11h-1509q-17 0 -28 -11t-11 -28v-854q0 -15 11 -26.5t28 -11.5h1509q15 0 26 11.5t11 26.5zM1960 1456q15 0 26 -11t11 -26v-1362q0 -15 -11 -27t-26 -12h-743v-110l172 -107q12 -9 10 -14.5t-19 -5.5h-661 q-15 0 -17 5.5t11 14.5l166 107v110h-746q-15 0 -26 12t-11 27v1362q0 15 11 26t26 11h1827z" />
<glyph unicode="V" />
<glyph unicode="X" horiz-adv-x="2201" d="M1673 215l-338 344l338 346l-264 273l-340 -342l-338 342l-268 -273l338 -346l-338 -344l268 -270l338 346l340 -346zM1063 1548q198 0 377.5 -78t309 -210t206 -315.5t76.5 -385.5q0 -161 -48.5 -312t-138 -271.5t-209 -211.5t-267.5 -140.5t-306 -49.5t-306 49.5 t-267.5 140.5t-209 211.5t-138 271.5t-48.5 312q0 202 76.5 385.5t206 315.5t309 210t377.5 78z" />
<glyph unicode="[" horiz-adv-x="2312" d="M397 1294l744 -813l747 813l340 -372l-1087 -1180l-1086 1180z" />
<glyph unicode="]" horiz-adv-x="2312" d="M1141 555l-744 -813l-342 373l1086 1179l1087 -1179l-340 -373z" />
<glyph unicode="^" horiz-adv-x="1171" d="M600 1597l471 -467l-143 -143l-330 326l-326 -324l-143 144zM598 -121l-473 463l145 143l328 -321l330 323l143 -143z" />
<glyph unicode="`" horiz-adv-x="1509" d="M539 -676q8 29 37 111t48 154t19 128q-148 59 -258.5 139t-175.5 171.5t-100.5 196t-36 213.5t21.5 223t69 225.5t109 220t138.5 208.5t161 188t173.5 161q76 -188 173.5 -341t304.5 -400q67 -81 116 -169.5t76.5 -188t26 -196t-43.5 -192.5t-122 -179.5t-219.5 -156 t-327.5 -121.5l66 -421q0 -7 -116.5 5.5t-139.5 20.5zM637 -131q22 -18 49 -18t43 9l16 9q-3 36 -8.5 100.5t-16.5 257t-16 377t-1.5 428.5t20.5 445q-38 -88 -63.5 -200t-36.5 -240.5t-16 -246t-1 -263.5t8.5 -241.5t12.5 -231t10 -185.5z" />
<glyph unicode="a" horiz-adv-x="2203" d="M510 535l-35 -27l-74 51l267 195l155 -191l283 623l258 -780l213 532l195 -477l-101 -19l-94 230l-223 -555l-264 792l-240 -524l-203 248zM1884 25v1253h-1589v-1253h1589zM104 1473h1973v-1645h-1973v1645z" />
<glyph unicode="b" horiz-adv-x="2035" d="M113 -158h4q50 1 93 22.5t75 61.5t58.5 88.5t44.5 112.5t32 124t22.5 133t13.5 129.5t7.5 123t3 103.5t0.5 81q0 187 135.5 328t341.5 170q-49 40 -49 94t38 92.5t93 38.5q52 0 89.5 -38.5t37.5 -92.5t-43 -94q202 -29 337.5 -170.5t135.5 -327.5q0 -52 0.5 -92t4 -118.5 t9.5 -140.5t18.5 -144.5t29.5 -145.5t44 -129t60.5 -109t80.5 -71t103 -29h2v-164h-684q0 -93 -68 -165t-157 -72q-93 0 -160 71.5t-67 165.5h-686v164z" />
<glyph unicode="c" horiz-adv-x="2625" d="M829 1241q45 169 152.5 236t288.5 67q175 0 279 -67t149 -236q18 -49 11 -262t-32 -274q-100 -258 -198 -367q105 -17 210.5 -51t166.5 -61t149 -71t113 -55q80 -35 138.5 -83.5t85 -92.5t42 -83.5t16.5 -62.5l2 -24v-176h-2277v176q0 9 1.5 24.5t17 60.5t42 86t85 90.5 t137.5 84.5q25 11 113 55t149 71t166 61t208 51q-93 106 -194 367q-24 60 -30.5 274t9.5 262z" />
<glyph unicode="d" horiz-adv-x="2166" d="M1141 418q19 -9 31.5 -16.5t30.5 -23t28 -39.5t10 -54q0 -95 -100 -123v256zM967 758q0 92 102 112v-241q-57 28 -78 55q-24 32 -24 74zM1151 0q33 6 65 17t68.5 34.5t63.5 54t45 79.5t18 108q0 28 -5 54t-12 46.5t-21 41t-25 34.5t-30.5 29.5t-32 25t-35.5 22t-34 18.5 t-34.5 17t-30.5 15v274q28 0 68 -14t69.5 -28.5t32.5 -14.5q9 0 12 12l47 103q4 4 4 14q0 33 -86.5 57.5t-146.5 30.5v72q0 20 -5 24t-26 4h-30q-21 0 -26 -4t-5 -24v-72q-24 -1 -54 -10t-67.5 -30t-68 -51.5t-51.5 -81t-21 -112.5q0 -32 5 -60.5t18 -52t24 -42t33 -36 t34.5 -28t39.5 -23.5t37 -18t38.5 -16.5t32.5 -13.5v-293q-41 5 -89 22t-78.5 31t-31.5 14q-5 0 -10 -5l-6 -5l-43 -127q-2 -8 -2 -14q0 -28 103 -53t157 -25v-68q0 -19 5.5 -23.5t25.5 -4.5h30q20 0 25.5 4.5t5.5 23.5v68zM1098 1489q198 0 378 -77t310.5 -207.5 t207.5 -310.5t77 -378t-77 -378t-207.5 -310.5t-310.5 -207.5t-378 -77t-378 77t-310.5 207.5t-207.5 310.5t-77 378t77 378t207.5 310.5t310.5 207.5t378 77z" />
<glyph unicode="e" horiz-adv-x="2203" d="M131 1118l899 -244v-1118l-899 246v1116zM2066 1118v-1116l-903 -246v1118l430 117v-413l187 49v415zM2062 1219l-329 -89l-973 263l336 92zM131 1219l377 102l969 -260l-381 -103z" />
<glyph unicode="i" horiz-adv-x="2172" d="M629 240v110h717v-110h-717zM1579 -240q129 0 160 179l-1092 -2q-8 -103 -39 -177h971zM541 -8v53l981 2v455h-9q-51 0 -83 176q-61 -86 -84 -105v-90h-717v111h633q-5 44 8 135h-17q-132 -84 -161 -51q-13 13 -7 51h-456v111h510q12 18 16 22q-175 -33 -192 12 q-13 37 65 99h-399v112h299q-10 10 -10 21q0 49 172 86q-111 80 -127 121h-568q35 -61 35 -148v-1329q0 -70 29 -74q13 1 26 13t26.5 37t21.5 71.5t8 108.5zM213 1044h106v121q0 92 -30 111q-64 -68 -76 -232zM1630 49h221v-55q0 -39 -7.5 -81.5t-27 -90t-48.5 -84.5 t-78.5 -61.5t-110.5 -24.5h-1135q-37 5 -73 37q-52 49 -52 147v1098h-215v55q0 269 121 375q73 67 156 59h729q-42 87 -18 111q33 36 180 -64q-29 178 12 195q47 21 146 -129q15 83 37 129.5t46 46.5q23 0 45 -47t37 -129q99 149 146 129q43 -17 10 -195q148 98 182 64 t-63 -184q79 18 131 14.5t61 -27.5q18 -47 -129 -145q174 -38 174 -86t-174 -86q70 -46 104 -84.5t25 -61.5q-17 -45 -192 -12q97 -147 63 -184q-36 -34 -182 63q33 -178 -10 -194q-39 -16 -111 82v-580z" />
<glyph unicode="k" horiz-adv-x="1302" d="M102 1403q0 98 67 168.5t159 70.5h610q94 0 160.5 -70.5t66.5 -168.5v-283q0 -98 -66.5 -166.5t-160.5 -68.5h-78v-154h-151v-151h151v-150h-151v-154h151v-151h-151v-156h151q-47 -145 -95 -269t-107 -228.5t-99 -104.5q-77 0 -114 50t-37 110v1358h-80 q-93 0 -159.5 68.5t-66.5 166.5v283zM408 1491v-154h452v154h-452z" />
<glyph unicode="l" horiz-adv-x="2064" d="M1522 307l96 -98l68 -68q-114 -148 -286.5 -232.5t-369.5 -84.5q-169 0 -323 65.5t-265.5 176t-177.5 264t-67 321.5h-27h-4h-166l311 312l314 -312h-125h-72q1 -161 82 -298.5t219.5 -217.5t300.5 -80q150 0 278.5 67t213.5 185zM1933 651h129l-311 -311l-315 311h125 h73v4q0 122 -48 233.5t-128.5 191.5t-192.5 127.5t-235 47.5q-150 0 -280.5 -69t-210.5 -187l-97 95l-71 69q118 151 290.5 237.5t368.5 86.5q170 0 324.5 -66t266.5 -177.5t178.5 -265.5t66.5 -323v-4h67z" />
<glyph unicode="p" horiz-adv-x="2756" d="M143 725q131 0 258 32.5t235.5 87t216 125.5t208.5 149.5l202 157t208 150t215.5 126t235.5 87.5t257 33q70 -153 214 -458t214 -457q-131 0 -256 -30t-231.5 -81.5t-210 -119t-202 -142.5t-197.5 -151.5t-206.5 -147.5t-218.5 -128.5t-244 -97t-272 -50.5 q-399 856 -426 915zM403 582q38 -81 134.5 -284t148.5 -314q289 56 617 299q-77 28 -137 88.5t-97 138.5q-70 157 -43 364q-160 -117 -309 -191t-314 -101zM2343 903q-40 84 -134 286t-145 310q-297 -58 -620 -301q79 -28 137.5 -87.5t95.5 -135.5q75 -169 43 -367 q159 116 309.5 191t313.5 104zM907 236q-40 78 -41 79q-12 -6 -20 -6q2 -27 14 -86q32 5 47 13zM967 285q4 6 11.5 22.5t12.5 24.5q-60 17 -84 28q-2 -4 -4.5 -8.5t-4.5 -8.5t-3 -5q19 -15 72 -53zM782 236q5 14 15.5 39t15.5 38q-4 1 -20 9q-31 -31 -58 -62q31 -22 47 -24z M993 410q-4 30 -12 49h-2q-63 -35 -76 -41v-4q6 -6 6 -23q51 9 84 19zM690 319q60 23 82 33q-1 4 -3.5 10.5t-2.5 10.5q-31 -2 -92 -2q3 -29 16 -52zM883 442q6 10 23.5 34t25.5 38q-20 20 -39 23q-31 -83 -31 -84q8 -8 21 -11zM770 406q5 5 10 20l-30 25t-39 30 q-17 -17 -23 -45q3 -1 35 -12t47 -18zM829 455q-1 15 -6 43.5t-6 42.5q-25 -4 -47 -13v0q4 -8 9 -20.5t9 -20.5q-4 8 -9 20.5t-9 20.5q30 -67 37 -82q8 6 22 9zM1880 973q-85 181 -96 203q-26 -10 -41 -25q16 -34 45.5 -102.5t46.5 -102.5q7 4 20.5 12.5t24.5 14.5z M2073 1065q-57 108 -99 201q-6 -2 -41 -19l44 -92t51 -108q9 4 22.5 9t22.5 9zM1974 1020q-55 121 -96 207q-8 -3 -20.5 -11.5t-22.5 -11.5q19 -38 54 -111.5t44 -91.5q7 3 19.5 9t21.5 10z" />
<glyph unicode="r" horiz-adv-x="2334" d="M1159 207h-285v946h285v-946zM1585 582q-46 -38 -73.5 -91.5t-32.5 -99.5v-94q-4 -25 -4 -74q-2 -6 -2 -18h-164v473h276v-96zM725 199h-285v678h285v-678zM1898 569q90 -19 149.5 -83t59.5 -146q0 -33 0.5 -58.5t4 -76.5t9.5 -89.5t18 -85.5t29 -77.5t44 -52t61 -21.5h2 v-76h-327q0 -44 -32 -78t-75 -34t-74.5 34t-31.5 78h-328v76h2q34 0 61 21.5t44 52t29 77.5t18 85.5t9.5 89.5t4 76.5t0.5 58.5q0 87 64 152t159 79h2l-2 2q2 0 2 7q0 5 -7 19t-7 19q0 23 14 40.5t39 17.5q28 0 43.5 -17.5t15.5 -40.5q0 -19 -16 -38l4 -2q6 -6 12 -9z M1886 578l-4 2q16 19 16 38q0 23 -15.5 40.5t-43.5 17.5q-25 0 -39 -17.5t-14 -40.5q0 -5 7 -19t7 -19q0 -7 -2 -7q-20 17 -20 45q0 24 19 42t44 18t44.5 -18t19.5 -42q0 -25 -19 -40zM1798 573l2 -2h-2v2zM1446 53q-11 -48 -41 -67q-10 -7 -29 -13.5t-24 -11.5 q-31 -18 -41 -63v-9h-1207v1561h1817v-696q-31 20 -82 20q-55 0 -84 -16v528h-1485v-1233h1176z" />
<glyph unicode="s" horiz-adv-x="1853" d="M1169 369q0 -54 -19.5 -95.5t-52.5 -65t-63 -35.5t-63 -17v-50q0 -13 -4 -16.5t-19 -3.5h-24q-16 0 -20.5 3.5t-4.5 16.5v50q-38 0 -116 18.5t-78 38.5q0 2 2 12l34 88q0 2 3 6.5t6 4.5q1 0 24 -11.5t58.5 -24.5t66.5 -16v213q-2 1 -24.5 10t-29 12t-28 13.5t-30 17.5 t-25.5 20t-25 26t-17.5 30t-13.5 37t-4 43q0 45 16 82.5t39 59.5t51.5 37t51 21t39.5 7v51q0 13 5 17t20 4h24q15 0 19 -3.5t4 -17.5v-51q42 -3 109 -21t67 -42q0 -9 -2 -13l-35 -71q-3 -11 -12 -11l-22 11q-23 10 -53.5 21t-51.5 11v-198q2 -1 23 -10.5t26.5 -12.5 t25.5 -13.5t27.5 -16.5t24 -18t23.5 -22t18.5 -25t16.5 -29.5t9 -33t4 -38.5zM829 702q0 -21 7.5 -37t24 -27t23.5 -15t23 -11v174q-14 -4 -21.5 -7.5t-23.5 -12.5t-24.5 -25.5t-8.5 -38.5zM963 459v-187q75 23 75 88q0 71 -75 99zM1573 -29v1213h-103v-58q0 -36 -24 -60 t-60 -24q-35 0 -60.5 24.5t-25.5 59.5v58h-284v-58q0 -35 -25.5 -59.5t-60.5 -24.5q-34 0 -58 24.5t-24 59.5v58h-285v-58q0 -35 -25.5 -59.5t-60.5 -24.5q-37 0 -61.5 24.5t-24.5 59.5v58h-98v-1213h1280zM1571 1368q74 0 126 -50t52 -122v-1237q0 -72 -52 -123t-126 -51 h-1276q-74 0 -126 51t-52 123v1237q0 72 52 122t126 50h96v64q0 35 24.5 59.5t61.5 24.5q35 0 60.5 -24.5t25.5 -59.5v-64h285v64q0 35 24 59.5t58 24.5q35 0 60.5 -24.5t25.5 -59.5v-64h284v64q0 35 25.5 59.5t60.5 24.5q36 0 60 -24t24 -60v-64h101z" />
<glyph unicode="t" horiz-adv-x="1699" d="M862 313q0 -89 -70 -139.5t-178 -50.5q-82 0 -145 29l14 102q73 -27 144 -27q46 0 76 22.5t30 53.5q0 46 -33 67t-120 25v103q125 13 125 77q0 28 -18 42t-66 14q-67 0 -121 -29l-15 103q60 32 168 32q90 0 141.5 -37t51.5 -94q0 -98 -129 -143v-2q74 -21 109.5 -55.5 t35.5 -92.5zM1079 571l-102 -39l-14 105l182 90h61v-594h-127v438zM1477 -84v1030h-1233v-1030h1233zM379 1368v-248q0 -33 16.5 -47t55.5 -14q37 0 54 14t17 47v248q0 66 -71 66q-38 0 -55 -16t-17 -50zM788 1368v-248q0 -33 17 -47t55 -14q39 0 55.5 14t16.5 47v248 q0 34 -17 50t-55 16q-72 0 -72 -66zM1200 1368v-248q0 -33 16.5 -47t55.5 -14q40 0 55.5 13.5t15.5 47.5v248q0 35 -16 50.5t-55 15.5q-38 0 -55 -16t-17 -50zM1425 1276h174v-1483h-1478v1483h174v92q0 68 41.5 106.5t114.5 38.5q72 0 112.5 -38t40.5 -107v-92h105v92 q0 69 39.5 107t111.5 38q73 0 114.5 -38.5t41.5 -106.5v-92h104v92q0 69 40 107t112 38t112.5 -38t40.5 -107v-92z" />
<glyph unicode="x" horiz-adv-x="2039" d="M1923 49l-420 -420l-534 637l-535 -637l-420 420l648 535l-648 534l420 420l535 -653l534 653l420 -420l-645 -528z" />
<glyph unicode="{" horiz-adv-x="2195" d="M977 193v270q183 0 278 -10q69 -9 130.5 -28t104 -42.5t77.5 -50t56.5 -51t36 -44.5t20.5 -32l6 -12q0 85 -24.5 160t-65.5 129t-94 99t-111.5 75t-117.5 53t-112 35.5t-94 20.5t-65 11l-25 2v250l-610 -416zM1059 1548q196 0 374 -77t306 -208.5t204 -313t76 -382.5 t-76 -382.5t-204 -313t-306 -208.5t-374 -77q-198 0 -377 77t-308.5 208.5t-205.5 313t-76 382.5t76 382.5t205.5 313t308.5 208.5t377 77z" />
<glyph unicode="|" horiz-adv-x="2195" d="M1032 -168q196 0 363 98.5t264.5 267.5t97.5 369q0 150 -57.5 286t-155 234.5t-231.5 157t-281 58.5q-146 0 -279.5 -58.5t-230 -157t-154 -234.5t-57.5 -286t57.5 -286t154 -234.5t230 -156.5t279.5 -58zM1032 1548q196 0 374.5 -78t308 -209t206 -313t76.5 -381 q0 -200 -76.5 -382t-206 -313t-308 -208.5t-374.5 -77.5q-195 0 -372.5 77.5t-306 208.5t-205 313t-76.5 382q0 199 76.5 381t205 313t306 209t372.5 78zM895 987h276v-369l273 -219l-150 -188l-399 307v469z" />
<glyph unicode="}" horiz-adv-x="2193" d="M1126 471v-268l607 415l-607 414v-248q-9 -1 -24.5 -2.5t-63.5 -10t-94.5 -20.5t-109.5 -35.5t-117.5 -53t-110 -74.5t-94.5 -98.5t-63.5 -127.5t-24.5 -159q4 9 11.5 23.5t41 54t77 72t122.5 64.5t174 44q142 10 276 10zM1044 1548q196 0 374 -77t306.5 -207t204.5 -310 t76 -379t-76 -379.5t-204.5 -311t-306.5 -207t-374 -76.5q-194 0 -370 76.5t-303.5 207t-203 311t-75.5 379.5t75.5 379t203 310t303.5 207t370 77z" />
<glyph unicode="&#x2000;" horiz-adv-x="856" />
<glyph unicode="&#x2001;" horiz-adv-x="1712" />
<glyph unicode="&#x2002;" horiz-adv-x="856" />
<glyph unicode="&#x2003;" horiz-adv-x="1712" />
<glyph unicode="&#x2004;" horiz-adv-x="570" />
<glyph unicode="&#x2005;" horiz-adv-x="428" />
<glyph unicode="&#x2006;" horiz-adv-x="285" />
<glyph unicode="&#x2007;" horiz-adv-x="285" />
<glyph unicode="&#x2008;" horiz-adv-x="214" />
<glyph unicode="&#x2009;" horiz-adv-x="342" />
<glyph unicode="&#x200a;" horiz-adv-x="95" />
<glyph unicode="&#x2026;" />
<glyph unicode="&#x202f;" horiz-adv-x="342" />
<glyph unicode="&#x205f;" horiz-adv-x="428" />
<glyph unicode="&#xe000;" horiz-adv-x="1536" d="M0 1536h1536v-1536h-1536v1536z" />
</font>
</defs>
</svg>
