<?xml version="1.0" standalone="no"?>
<!DOCTYPE svg PUBLIC "-//W3C//DTD SVG 1.1//EN" "http://www.w3.org/Graphics/SVG/1.1/DTD/svg11.dtd" >
<svg xmlns="http://www.w3.org/2000/svg">
<metadata>
This is a custom SVG webfont generated by Font Squirrel.
Copyright   : Created by Jason Cypret with FontForge 20 httpfontforgesfnet
</metadata>
<defs>
<font id="ADTMedium" horiz-adv-x="2048" >
<font-face units-per-em="2048" ascent="1638" descent="-410" />
<missing-glyph horiz-adv-x="500" />
<glyph unicode="!" d="M786 -166q0 104 63.5 166.5t173.5 62.5t174.5 -65.5t64.5 -167.5q0 -104 -66 -172t-174 -68q-109 0 -172.5 70t-63.5 174zM791 1638h462l-73 -1417h-316z" />
<glyph unicode="&#x22;" d="M246 588q0 170 71.5 322.5t198.5 260.5q41 35 95.5 32t88.5 -42q35 -39 32 -92t-44 -88q-84 -74 -132 -176.5t-48 -216.5q0 -219 157.5 -373t381.5 -156q225 2 382.5 156t157.5 373q0 115 -48 216t-132 175q-41 37 -44 89t34 91q35 39 89 42t95 -32q125 -109 195.5 -260 t70.5 -321q0 -213 -106.5 -393.5t-290.5 -285t-402.5 -104.5t-402.5 104.5t-291.5 285t-107.5 393.5zM924 586v817q0 51 62.5 89t119.5 38q12 0 21.5 -1t16.5 -6t11 -9.5t7 -13.5t5 -14t3 -18.5t1 -19.5t-1 -21.5t-1 -23.5v-817q0 -53 -37.5 -91t-91.5 -38h15q-55 0 -93 38 t-38 91z" />
<glyph unicode="#" d="M281 -410v1170h145v319q0 231 155.5 395t376.5 164h52h10q145 0 278.5 -69.5t216 -196.5t82.5 -274v-338h146v-1170h-1462zM719 760h586v321q0 115 -78 197t-187 82h-28h-29q-111 0 -187.5 -75t-76.5 -187v-338z" />
<glyph unicode="$" d="M0 1339h330l309 -227h1409l-219 -731q-8 -29 -30.5 -47.5t-49.5 -18.5h-1022q-25 0 -48.5 41t-31.5 80l-194 563zM643 31.5q0 70.5 50 121t120 50.5t119 -50.5t49 -121t-49 -120.5t-119 -50t-120 50t-50 120.5zM797 543h342v342h-342v-342zM1279 32q-1 171 168 171 t169 -171t-168 -171t-169 171zM1366 543h340v342h-340v-342z" />
<glyph unicode="%" d="M0 49v1047q0 66 47 111.5t113 45.5h1728q66 0 113 -46t47 -111v-1047q0 -68 -47 -114t-113 -46h-1728q-66 0 -113 46t-47 114zM115 686h1818v340h-1818v-340z" />
<glyph unicode="(" d="M0 1077h2048l-1024 -1024z" />
<glyph unicode=")" d="M0 176l1024 1024l1024 -1024h-2048z" />
<glyph unicode="*" d="M0 539v116v117q0 2 4 2h121q49 0 59.5 24.5t-24.5 59.5l-86 86q-4 4 0 6l82 82l82 82q2 4 6 0l86 -86q35 -35 59.5 -24.5t24.5 59.5v121q0 4 2 4h116h117q2 0 2 -4v-121q0 -49 24.5 -59.5t59.5 24.5l86 86q4 4 6 0l82 -82l82 -82q4 -2 0 -6l-86 -86q-35 -35 -24.5 -59.5 t59.5 -24.5h121q4 0 4 -2v-117v-116q0 -2 -4 -2h-121q-49 0 -59.5 -25t24.5 -59l86 -86q4 -4 0 -7l-82 -81l-82 -82q-2 -4 -6 0l-86 86q-35 35 -59.5 24.5t-24.5 -59.5v-121q0 -4 -2 -4h-117h-116q-2 0 -2 4v121q0 49 -24.5 59t-59.5 -24l-86 -86q-4 -4 -6 0l-82 82l-82 81 q-4 2 0 7l86 86q35 35 24.5 59.5t-59.5 24.5h-121q-4 0 -4 2zM360 659q0 -74 53.5 -127t127.5 -53t126 53.5t52 127t-52.5 126t-125.5 52.5q-74 0 -127.5 -52.5t-53.5 -126.5zM1393 696h655l-328 -327z" />
<glyph unicode="/" d="M0 614.5q0 208.5 81 398t218 327t326.5 218t398.5 80.5t398.5 -80.5t326.5 -218t218 -327t81 -398t-81 -398t-218 -327t-326.5 -218.5t-398.5 -81t-398.5 81t-326.5 218.5t-218 327t-81 398zM360 541.5q0 -21.5 17 -37.5l338 -340q39 -39 92 -39h61q53 0 93 39l716 719 q16 16 16.5 38.5t-16.5 39.5l-133 131q-14 14 -36.5 14t-37.5 -14l-591 -596q-16 -14 -39 -14.5t-39 14.5l-215 217q-16 14 -38 14t-38 -14l-133 -133q-17 -17 -17 -38.5z" />
<glyph unicode="&#x3c;" d="M0 614q0 424 300 724t724 300t724 -300t300 -724t-300 -724t-724 -300t-724 300t-300 724zM473 623l844 -512v1026z" />
<glyph unicode="=" d="M0 -10v184q0 4 1 12.5t13.5 33t34 48t67.5 55t109 60.5q27 12 117 63.5t187.5 91.5t203.5 60q-72 76 -155 287q-8 18 -12.5 36.5t-6.5 31t-3 36t-2 32.5t0 39t1 40q0 16 -3 66.5t-2 88t7 62.5q68 240 344.5 239.5t343.5 -239.5q6 -25 7 -62.5t-2 -88t-3 -66.5 q0 -10 1 -40t0 -40t-2 -32.5t-3 -36t-6 -31t-12 -35.5q-86 -213 -156 -287q174 -33 377 -143v-224h-242v-120v-121h-1204zM1325 111h242v481h-242l363 364l360 -364h-242v-481h242l-360 -414z" />
<glyph unicode="&#x3e;" d="M0 614.5q0 208.5 81 398t218 327t326.5 218t398.5 80.5t398.5 -80.5t326.5 -218t218 -327t81 -398t-81 -398t-218 -327t-326.5 -218.5t-398.5 -81t-398.5 81t-326.5 218.5t-218 327t-81 398zM731 111l844 512l-844 514v-1026z" />
<glyph unicode="?" d="M397 1448l35 22q113 76 252 121q150 47 344 47q274 0 436 -131q162 -133 162 -360q0 -145 -41 -240q-43 -98 -100 -164q-59 -68 -129 -116q-66 -49 -115 -99q-16 -16 2.5 -55t5.5 -59q-33 -63 -32 -164v-45h-447h-43l-4 41q-4 33 -4 92q0 88 18 160q33 109 82 180 q57 80 119 131l115 98q57 55 82 92q29 41 28 99q0 76 -41 116q-37 41 -157 41q-43 0 -84 -8q-47 -10 -93 -24q-49 -16 -90 -37q-39 -18 -75 -43l-43 -31zM668 -160q0 113 75 180q74 68 191 68q121 0 199 -68q76 -68 75 -180q0 -113 -75 -182q-78 -68 -199 -68 q-117 0 -191 68q-75 69 -75 182z" />
<glyph unicode="@" d="M0 649q0 270 151.5 498.5t407.5 359.5t553 131q156 0 318.5 -61t302 -171t227.5 -281t88 -371q0 -152 -52 -269.5t-127 -183t-170 -106.5t-167 -53.5t-133 -12.5q-66 0 -101.5 46t-37.5 110h-7q-104 -113 -172 -152q-84 -49 -178 -49q-176 0 -281.5 146.5t-105.5 342.5 q0 86 21.5 174.5t65.5 173.5t105.5 151.5t149.5 106.5t189 40q113 0 235.5 -72t147.5 -158l4 -94v129h131l-115 -506q-4 -12 -8 -17t-7 -4t-6.5 1t-5.5 -5.5t-2 -17.5q0 -45 18.5 -66.5t65.5 -21.5q53 0 109.5 20.5t108 60.5t84 109.5t32.5 157.5q0 154 -66.5 289t-173 223 t-235.5 139.5t-254 51.5q-231 0 -440 -108.5t-337 -292t-128 -388.5q0 -113 52 -243t144.5 -251.5t227.5 -210.5t288.5 -128t343 5t377.5 179h400q-135 -172 -420 -289t-502 -117q-221 0 -429 90.5t-357.5 236t-239.5 337.5t-90 391zM780 606q0 -25 1 -43t13.5 -55t35 -59.5 t69.5 -42t113 -19.5q76 0 131 25.5t83.5 69.5t42 91.5t13.5 100.5q0 94 -84 204.5t-151 106.5q-45 0 -107.5 -61.5t-111 -152.5t-48.5 -165z" />
<glyph unicode="A" d="M78 733l813 823l813 -823h-213v-239h-121v-240h-240v-360h-837v839h-215zM772 733h240v240h-240v-240zM1251 -106v239h240v240h240v-240h239v-239h-239v-240h-240v240h-240z" />
<glyph unicode="B" d="M0 -248q0 23 55.5 94.5t75.5 71.5h1735q20 0 77.5 -71.5t57.5 -94.5v-33q0 -20 -15.5 -35.5t-37.5 -15.5h-1895q-23 0 -38 14.5t-15 36.5v33zM104 1044l897 429l895 -429h-1792zM121 1044h1782l2 9q2 8 3 15t3 7l-88 -155h-1645zM158 743q0 20 15 36t38 16h289 q23 0 38 -15.5t15 -36.5q0 -41 -53 -41q-10 0 -17 3l2 4h2q0 2 -6 6l-2 10q0 16 10 29q-16 -12 -16 -33q0 -4 8 -6q0 -2 9.5 -5t9.5 -5v-730q0 -25 -17.5 -41t-40.5 -16h-133q-25 0 -42 16.5t-17 40.5v734q0 2 -7 6t-7 6q0 20 -15 33q10 -12 10 -29q0 -12 -4 -20 q-6 -2 -16 -3q-53 0 -53 41zM580 743q0 20 15 36t36 16h291q23 0 38 -15.5t15 -36.5q0 -41 -53 -41l-13 3v4h2q-2 2 -10 6v10q0 16 10 29q-16 -14 -16 -33q0 -2 6 -6l4 -10h-31v-730q0 -25 -16 -41t-41 -16h-133q-25 0 -42 16.5t-17 40.5v734q0 2 16 6t16 6q0 18 -14 33 q10 -12 10 -29q0 -12 -6 -20q-4 -2 -16 -3q-51 0 -51 41zM1026 743q0 20 15.5 36t37.5 16h291q20 0 35.5 -15.5t15.5 -36.5q0 -41 -51 -41q-12 0 -16 3q-6 10 -6 20q0 16 10 29q-14 -14 -15 -33q0 -2 16.5 -6t16.5 -6v-734q0 -25 -17.5 -41t-41.5 -16h-133q-25 0 -41.5 16.5 t-16.5 40.5v730h2q2 2 -6 4t-15 3t-7 3q6 4 6 6q0 18 -14 33q8 -12 8 -29v-10q-8 -4 -10 -6h2v-4l-13 -3q-53 0 -53 41zM1448 743q0 20 15.5 36t37.5 16h291q20 0 35.5 -15.5t15.5 -36.5q0 -41 -51 -41q-12 0 -16 3q-6 10 -7 20q0 16 11 29q-14 -12 -15 -33q0 -2 -7 -6 t-5 -6h-2v-734q0 -25 -17.5 -41t-41.5 -16h-131q-25 0 -42.5 16.5t-17.5 40.5v730l4 10l6 1q6 1 11.5 2t5.5 3q0 20 -17 33q10 -12 11 -29v-10q-8 -4 -9 -6h3l2 -4q-6 -2 -17 -3q-53 0 -53 41z" />
<glyph unicode="C" d="M0 102v88q0 6 3 15.5t28.5 36t70.5 47.5q12 6 53.5 30.5t85.5 44t93 27.5q-33 35 -72 137q-10 29 -10 103q0 6 -1 30.5t0 43t3 28.5q31 115 157 115t156 -115q2 -10 2 -28.5t-1 -42t-1 -31.5q0 -76 -10 -103q-31 -82 -57 -120q-76 -47 -102.5 -98.5t-26.5 -86.5h22v-121 h-393zM473 102v121q0 2 1 7.5t8 21.5t20.5 31.5t42 36t69.5 38.5q18 10 69.5 43t109 59.5t125.5 39.5q-45 47 -99 188q-14 37 -14 139q0 10 -1 44t-1 58.5t4 41.5q43 156 215 155q172 0 215 -155q4 -16 5 -41t-1 -57.5t-2 -45.5q0 -102 -14 -139q-53 -139 -97 -188 q66 -12 127.5 -39t119 -60.5t73.5 -42.5h-14q63 -29 98 -62.5t39 -53.5l4 -19v-121h-1102zM1476 705q1 18 3 28q31 115 157 115q125 0 156 -115q4 -10 4 -28.5t-1 -42t-1 -31.5q0 -76 -10 -103q-39 -100 -72 -137q49 -8 93 -27.5t86 -44t55 -30.5q45 -20 70.5 -45t29.5 -39 l2 -15v-88h-393v121h22q-4 104 -133 187q-25 37 -55 118q-10 27 -10 103q0 8 -2 32q-1 16 -2 29q1 7 1 13z" />
<glyph unicode="E" d="M0 -8v1124q0 117 86 199t209 82h1171q10 0 30 -16.5t30 -18.5l-215 -205h-996q-31 0 -52 -20.5t-21 -49.5v-1064q0 -31 21.5 -51.5t51.5 -20.5h1178q31 0 52.5 20.5t21.5 51.5v383l239 210v-624q0 -117 -86 -199t-207 -82h-1218q-123 0 -209 82t-86 199zM739 139l152 445 l844 807l313 -301l-844 -807zM852 246l313 98l-211 203z" />
<glyph unicode="S" d="M0 10v582h272v-547h1504v547h272v-641q0 -74 -52 -126t-126 -52h-1692q-70 0 -124 78.5t-54 158.5zM385 864h434v547h410v-547h461l-666 -565z" />
<glyph unicode="X" d="M0 614q0 424 300 724t724 300t724 -300t300 -724t-300 -724t-724 -300t-724 300t-300 724zM389 258l283 -283l358 359l356 -359l283 283l-358 358l358 357l-283 282l-356 -358l-358 358l-283 -282l359 -357z" />
<glyph unicode="^" d="M512 145l172 170l391 -385l391 385l172 -170l-563 -555zM512 1083l563 555l563 -555l-172 -170l-391 385l-391 -385z" />
<glyph unicode="{" d="M0 614.5q0 208.5 81 398t218 327t326.5 218t398.5 80.5t398.5 -80.5t326.5 -218t218 -327t81 -398t-81 -398t-218 -327t-326.5 -218.5t-398.5 -81t-398.5 81t-326.5 218.5t-218 327t-81 398zM293 657l651 -436v285q172 0 293 -14q100 -12 185 -45t133.5 -70t81 -73 t44.5 -60l13 -23q0 360 -404 527q-176 74 -346 86v264z" />
<glyph unicode="|" d="M145 614.5q0 239.5 118 441t319.5 319.5t441.5 118t441.5 -118t319.5 -319.5t118 -441t-118 -441.5t-319.5 -319.5t-441.5 -117.5t-441.5 117.5t-319.5 319.5t-118 441.5zM365 614.5q0 -178.5 88 -331t240.5 -240.5t330.5 -88t329.5 88t240.5 240.5t89 331t-89 331 t-240.5 240.5t-329.5 88t-330.5 -88t-240.5 -240.5t-88 -331zM899 580q4 393 10 399q10 12 62 12h94q63 0 74 -12q2 -2 5 -84t5 -162v-82l283 -221l-181 -162l-309 252q-2 0 -9 8l-14 17q-7 8 -10 8q-10 11 -10 27z" />
<glyph unicode="}" d="M0 614.5q0 208.5 81 398t218 327t326.5 218t398.5 80.5t398.5 -80.5t326.5 -218t218 -327t81 -398t-81 -398t-218 -327t-326.5 -218.5t-398.5 -81t-398.5 81t-326.5 218.5t-218 327t-81 398zM354 221l13 25q8 16 43.5 57t83 75t132.5 67.5t185 46.5q121 14 293 14v-285 l651 436l-651 441v-264q-14 0 -42 -4.5t-105.5 -20.5t-148.5 -41t-158 -73t-148.5 -109.5t-104.5 -156.5t-43 -208z" />
<glyph unicode="&#xc2;" d="M26268 2234l172 170l391 -385l391 385l172 -170l-563 -555zM26268 3172l563 555l563 -555l-172 -170l-391 385l-391 -385zM78 733l813 823l813 -823h-213v-239h-121v-240h-240v-360h-837v839h-215zM772 733h240v240h-240v-240zM1251 -106v239h240v240h240v-240h239v-239 h-239v-240h-240v240h-240z" />
<glyph unicode="&#xca;" d="M26257 2074l172 170l391 -385l391 385l172 -170l-563 -555zM26257 3012l563 555l563 -555l-172 -170l-391 385l-391 -385zM0 -8v1124q0 117 86 199t209 82h1171q10 0 30 -16.5t30 -18.5l-215 -205h-996q-31 0 -52 -20.5t-21 -49.5v-1064q0 -31 21.5 -51.5t51.5 -20.5 h1178q31 0 52.5 20.5t21.5 51.5v383l239 210v-624q0 -117 -86 -199t-207 -82h-1218q-123 0 -209 82t-86 199zM739 139l152 445l844 807l313 -301l-844 -807zM852 246l313 98l-211 203z" />
<glyph unicode="&#x2c6;" d="M512 145l172 170l391 -385l391 385l172 -170l-563 -555zM512 1083l563 555l563 -555l-172 -170l-391 385l-391 -385z" />
<glyph unicode="&#x2000;" horiz-adv-x="1863" />
<glyph unicode="&#x2001;" horiz-adv-x="3727" />
<glyph unicode="&#x2002;" horiz-adv-x="1863" />
<glyph unicode="&#x2003;" horiz-adv-x="3727" />
<glyph unicode="&#x2004;" horiz-adv-x="1241" />
<glyph unicode="&#x2005;" horiz-adv-x="931" />
<glyph unicode="&#x2006;" horiz-adv-x="620" />
<glyph unicode="&#x2007;" horiz-adv-x="620" />
<glyph unicode="&#x2008;" horiz-adv-x="464" />
<glyph unicode="&#x2009;" horiz-adv-x="745" />
<glyph unicode="&#x200a;" horiz-adv-x="206" />
<glyph unicode="&#x2013;" horiz-adv-x="1024" d="M205 512v205h614v-205h-614z" />
<glyph unicode="&#x2014;" d="M205 512v205h1638v-205h-1638z" />
<glyph unicode="&#x201c;" d="M246 588q0 170 71.5 322.5t198.5 260.5q41 35 95.5 32t88.5 -42q35 -39 32 -92t-44 -88q-84 -74 -132 -176.5t-48 -216.5q0 -219 157.5 -373t381.5 -156q225 2 382.5 156t157.5 373q0 115 -48 216t-132 175q-41 37 -44 89t34 91q35 39 89 42t95 -32q125 -109 195.5 -260 t70.5 -321q0 -213 -106.5 -393.5t-290.5 -285t-402.5 -104.5t-402.5 104.5t-291.5 285t-107.5 393.5zM924 586v817q0 51 62.5 89t119.5 38q12 0 21.5 -1t16.5 -6t11 -9.5t7 -13.5t5 -14t3 -18.5t1 -19.5t-1 -21.5t-1 -23.5v-817q0 -53 -37.5 -91t-91.5 -38h15q-55 0 -93 38 t-38 91z" />
<glyph unicode="&#x201d;" d="M246 588q0 170 71.5 322.5t198.5 260.5q41 35 95.5 32t88.5 -42q35 -39 32 -92t-44 -88q-84 -74 -132 -176.5t-48 -216.5q0 -219 157.5 -373t381.5 -156q225 2 382.5 156t157.5 373q0 115 -48 216t-132 175q-41 37 -44 89t34 91q35 39 89 42t95 -32q125 -109 195.5 -260 t70.5 -321q0 -213 -106.5 -393.5t-290.5 -285t-402.5 -104.5t-402.5 104.5t-291.5 285t-107.5 393.5zM924 586v817q0 51 62.5 89t119.5 38q12 0 21.5 -1t16.5 -6t11 -9.5t7 -13.5t5 -14t3 -18.5t1 -19.5t-1 -21.5t-1 -23.5v-817q0 -53 -37.5 -91t-91.5 -38h15q-55 0 -93 38 t-38 91z" />
<glyph unicode="&#x202f;" horiz-adv-x="745" />
<glyph unicode="&#x2039;" d="M0 614q0 424 300 724t724 300t724 -300t300 -724t-300 -724t-724 -300t-724 300t-300 724zM473 623l844 -512v1026z" />
<glyph unicode="&#x203a;" d="M0 614.5q0 208.5 81 398t218 327t326.5 218t398.5 80.5t398.5 -80.5t326.5 -218t218 -327t81 -398t-81 -398t-218 -327t-326.5 -218.5t-398.5 -81t-398.5 81t-326.5 218.5t-218 327t-81 398zM731 111l844 512l-844 514v-1026z" />
<glyph unicode="&#x205f;" horiz-adv-x="931" />
<glyph unicode="&#xe000;" horiz-adv-x="500" d="M0 0v0v0v0v0z" />
</font>
</defs>
</svg>
